<svg xmlns="http://www.w3.org/2000/svg" width="100%" height="100%" viewBox="0 0 293 345" version="1.1"><path d="M 147.291 17.306 C 130.002 43.134, 122.845 63.509, 122.809 87 C 122.789 100.926, 124.683 110.576, 129.929 123.273 L 132.915 130.500 128.903 126 C 124.152 120.672, 116.710 105.756, 114.933 98 C 114.240 94.975, 113.409 88.675, 113.086 84 L 112.500 75.500 109.799 81.174 C 98.756 104.371, 98.784 125.564, 109.876 139.382 C 131.104 165.830, 160.987 183.961, 183.401 183.993 L 188.302 184 187.674 174.750 C 186.559 158.338, 183.495 150.578, 168.031 125 C 157.528 107.629, 153.896 100.564, 151.048 91.967 C 143.964 70.579, 144.307 43.764, 152.019 16.122 C 153.152 12.064, 153.936 8.602, 153.762 8.429 C 153.588 8.255, 150.676 12.250, 147.291 17.306 M 34.140 24.782 C 24.673 39.535, 19.712 55.555, 19.673 71.500 C 19.643 83.915, 21.271 91.986, 26.192 103.807 C 29.546 111.863, 40.994 129.812, 45.402 133.924 C 48.844 137.136, 48.736 138.684, 45.250 136.091 C 38.277 130.907, 28.738 120.600, 22.489 111.500 L 19.742 107.500 20.322 116.239 C 21.952 140.818, 31.562 158.559, 49.887 170.817 C 54.790 174.096, 60.451 177.324, 62.467 177.989 C 67.704 179.717, 66.239 180.241, 59.896 178.908 C 49.132 176.647, 38.970 171.056, 26.713 160.651 L 20.926 155.738 23.022 161.119 C 28.914 176.247, 41.397 192.146, 52.380 198.514 C 59.775 202.800, 68.849 205.765, 77.044 206.573 C 83.337 207.193, 84.060 207.448, 81.961 208.309 C 80.607 208.864, 75 209.275, 69.500 209.222 C 58.413 209.116, 47.942 206.592, 35.606 201.051 C 31.814 199.348, 28.542 198.124, 28.335 198.332 C 28.128 198.539, 29.871 201.587, 32.210 205.104 C 38.628 214.758, 48.818 224.329, 56.744 228.147 C 65.804 232.511, 76.407 233.012, 97.905 230.092 C 119.568 227.150, 120.264 227.310, 109.035 232.654 C 88.872 242.249, 76.123 244.794, 65.803 241.284 L 60.106 239.346 63.259 243.326 C 67.585 248.789, 76.957 255.493, 83.138 257.546 C 93.601 261.021, 105.414 257.434, 116.010 247.564 C 131.117 233.492, 145.297 227.020, 161 227.027 C 167.382 227.031, 179.257 228.923, 180.463 230.129 C 180.667 230.333, 176.033 230.511, 170.167 230.525 C 151.741 230.568, 141.017 235.688, 124.500 252.328 C 106.717 270.242, 100.477 274.808, 88 279.036 C 73.397 283.984, 51.753 285.236, 27.540 282.534 C 20.412 281.738, 14.337 281.335, 14.040 281.638 C 13.743 281.941, 16.177 284.685, 19.448 287.736 C 26.658 294.458, 38.317 300.274, 49.500 302.727 C 59.131 304.838, 81.486 305.064, 90.500 303.140 C 112.520 298.440, 131.353 289.609, 147.629 276.352 C 156.814 268.870, 153.521 273.411, 142.750 283.079 C 116.714 306.449, 88.123 326.613, 71.341 333.440 L 65.801 335.694 72.047 336.347 C 85.087 337.710, 109.146 336.342, 124.296 333.376 C 145.729 329.180, 162.760 319.833, 175.146 305.470 C 181.891 297.647, 187.576 288.688, 197.969 269.500 C 203.034 260.150, 210.127 248.090, 213.733 242.700 C 227.943 221.457, 250.604 203.448, 274.363 194.516 L 280.239 192.307 273.870 191.058 C 270.366 190.371, 261.425 187.885, 254 185.533 C 236.653 180.037, 233.776 179.304, 226.408 178.503 C 214.605 177.219, 201.340 181.645, 192 189.982 C 187.796 193.734, 187.204 193.959, 183 193.404 C 176.475 192.542, 168.444 190.428, 156.469 186.421 C 117.423 173.355, 90.851 155.302, 66.943 125.598 C 53.160 108.473, 44.495 89.618, 40.541 68.149 C 38.427 56.666, 36.727 32.718, 37.532 25.750 C 37.897 22.587, 37.974 20, 37.702 20 C 37.431 20, 35.828 22.152, 34.140 24.782" stroke="none" fill="#41bcf5" fill-rule="evenodd"/><path d="M 0 172.503 L 0 345.007 146.750 344.753 L 293.500 344.500 293.753 172.250 L 294.006 0 147.003 0 L 0 0 0 172.503 M 0.489 173 C 0.489 267.875, 0.606 306.688, 0.750 259.250 C 0.894 211.813, 0.894 134.188, 0.750 86.750 C 0.606 39.313, 0.489 78.125, 0.489 173 M 147.291 17.306 C 130.002 43.134, 122.845 63.509, 122.809 87 C 122.789 100.926, 124.683 110.576, 129.929 123.273 L 132.915 130.500 128.903 126 C 124.152 120.672, 116.710 105.756, 114.933 98 C 114.240 94.975, 113.409 88.675, 113.086 84 L 112.500 75.500 109.799 81.174 C 98.756 104.371, 98.784 125.564, 109.876 139.382 C 131.104 165.830, 160.987 183.961, 183.401 183.993 L 188.302 184 187.674 174.750 C 186.559 158.338, 183.495 150.578, 168.031 125 C 157.528 107.629, 153.896 100.564, 151.048 91.967 C 143.964 70.579, 144.307 43.764, 152.019 16.122 C 153.152 12.064, 153.936 8.602, 153.762 8.429 C 153.588 8.255, 150.676 12.250, 147.291 17.306 M 34.140 24.782 C 24.673 39.535, 19.712 55.555, 19.673 71.500 C 19.643 83.915, 21.271 91.986, 26.192 103.807 C 29.546 111.863, 40.994 129.812, 45.402 133.924 C 48.844 137.136, 48.736 138.684, 45.250 136.091 C 38.277 130.907, 28.738 120.600, 22.489 111.500 L 19.742 107.500 20.322 116.239 C 21.952 140.818, 31.562 158.559, 49.887 170.817 C 54.790 174.096, 60.451 177.324, 62.467 177.989 C 67.704 179.717, 66.239 180.241, 59.896 178.908 C 49.132 176.647, 38.970 171.056, 26.713 160.651 L 20.926 155.738 23.022 161.119 C 28.914 176.247, 41.397 192.146, 52.380 198.514 C 59.775 202.800, 68.849 205.765, 77.044 206.573 C 83.337 207.193, 84.060 207.448, 81.961 208.309 C 80.607 208.864, 75 209.275, 69.500 209.222 C 58.413 209.116, 47.942 206.592, 35.606 201.051 C 31.814 199.348, 28.542 198.124, 28.335 198.332 C 28.128 198.539, 29.871 201.587, 32.210 205.104 C 38.628 214.758, 48.818 224.329, 56.744 228.147 C 65.804 232.511, 76.407 233.012, 97.905 230.092 C 119.568 227.150, 120.264 227.310, 109.035 232.654 C 88.872 242.249, 76.123 244.794, 65.803 241.284 L 60.106 239.346 63.259 243.326 C 67.585 248.789, 76.957 255.493, 83.138 257.546 C 93.601 261.021, 105.414 257.434, 116.010 247.564 C 131.117 233.492, 145.297 227.020, 161 227.027 C 167.382 227.031, 179.257 228.923, 180.463 230.129 C 180.667 230.333, 176.033 230.511, 170.167 230.525 C 151.741 230.568, 141.017 235.688, 124.500 252.328 C 106.717 270.242, 100.477 274.808, 88 279.036 C 73.397 283.984, 51.753 285.236, 27.540 282.534 C 20.412 281.738, 14.337 281.335, 14.040 281.638 C 13.743 281.941, 16.177 284.685, 19.448 287.736 C 26.658 294.458, 38.317 300.274, 49.500 302.727 C 59.131 304.838, 81.486 305.064, 90.500 303.140 C 112.520 298.440, 131.353 289.609, 147.629 276.352 C 156.814 268.870, 153.521 273.411, 142.750 283.079 C 116.714 306.449, 88.123 326.613, 71.341 333.440 L 65.801 335.694 72.047 336.347 C 85.087 337.710, 109.146 336.342, 124.296 333.376 C 145.729 329.180, 162.760 319.833, 175.146 305.470 C 181.891 297.647, 187.576 288.688, 197.969 269.500 C 203.034 260.150, 210.127 248.090, 213.733 242.700 C 227.943 221.457, 250.604 203.448, 274.363 194.516 L 280.239 192.307 273.870 191.058 C 270.366 190.371, 261.425 187.885, 254 185.533 C 236.653 180.037, 233.776 179.304, 226.408 178.503 C 214.605 177.219, 201.340 181.645, 192 189.982 C 187.796 193.734, 187.204 193.959, 183 193.404 C 176.475 192.542, 168.444 190.428, 156.469 186.421 C 117.423 173.355, 90.851 155.302, 66.943 125.598 C 53.160 108.473, 44.495 89.618, 40.541 68.149 C 38.427 56.666, 36.727 32.718, 37.532 25.750 C 37.897 22.587, 37.974 20, 37.702 20 C 37.431 20, 35.828 22.152, 34.140 24.782" stroke="none" fill="none" fill-rule="evenodd"/></svg>